<mxfile host="65bd71144e">
    <diagram id="HtxJSW1MTFvICpF-WlDl" name="Page-1">
        <mxGraphModel dx="538" dy="482" grid="1" gridSize="10" guides="1" tooltips="1" connect="1" arrows="1" fold="1" page="1" pageScale="1" pageWidth="850" pageHeight="1100" math="0" shadow="0">
            <root>
                <mxCell id="0"/>
                <mxCell id="1" parent="0"/>
                <mxCell id="9" value="Security Policy Stage 1:&amp;nbsp;&lt;div&gt;Event Detection&lt;/div&gt;" style="rounded=1;whiteSpace=wrap;html=1;verticalAlign=top;dashed=1;arcSize=9;" vertex="1" parent="1">
                    <mxGeometry x="470" y="160" width="300" height="160" as="geometry"/>
                </mxCell>
                <mxCell id="7" value="Audit Policy Filtered&amp;nbsp;&lt;div&gt;Normalized Logs&lt;/div&gt;&lt;div&gt;(BSONs)&amp;nbsp;&lt;/div&gt;" style="edgeStyle=orthogonalEdgeStyle;html=1;exitX=1;exitY=0.75;exitDx=0;exitDy=0;entryX=0;entryY=0.5;entryDx=0;entryDy=0;" edge="1" parent="1" source="2" target="8">
                    <mxGeometry x="0.3559" relative="1" as="geometry">
                        <mxPoint x="480" y="340" as="targetPoint"/>
                        <mxPoint as="offset"/>
                    </mxGeometry>
                </mxCell>
                <mxCell id="2" value="gateway stdin&lt;div&gt;mapping&lt;/div&gt;" style="rounded=1;whiteSpace=wrap;html=1;fillColor=#d5e8d4;strokeColor=#82b366;" vertex="1" parent="1">
                    <mxGeometry x="240" y="220" width="120" height="60" as="geometry"/>
                </mxCell>
                <mxCell id="3" value="RAW Logs" style="endArrow=classic;html=1;entryX=0;entryY=0.5;entryDx=0;entryDy=0;" edge="1" parent="1">
                    <mxGeometry width="50" height="50" relative="1" as="geometry">
                        <mxPoint x="130" y="249.69" as="sourcePoint"/>
                        <mxPoint x="240" y="249.68999999999988" as="targetPoint"/>
                    </mxGeometry>
                </mxCell>
                <mxCell id="4" value="Normalized Logs&lt;div&gt;(JSONs)&lt;/div&gt;" style="endArrow=classic;html=1;entryX=0;entryY=0.5;entryDx=0;entryDy=0;exitX=1;exitY=0.5;exitDx=0;exitDy=0;edgeStyle=orthogonalEdgeStyle;" edge="1" parent="1" source="2" target="5">
                    <mxGeometry width="50" height="50" relative="1" as="geometry">
                        <mxPoint x="380" y="249.69" as="sourcePoint"/>
                        <mxPoint x="490" y="249.69" as="targetPoint"/>
                    </mxGeometry>
                </mxCell>
                <mxCell id="5" value="gateway stdin" style="rounded=1;whiteSpace=wrap;html=1;fillColor=#fff2cc;strokeColor=#d6b656;" vertex="1" parent="1">
                    <mxGeometry x="490" y="220" width="120" height="60" as="geometry"/>
                </mxCell>
                <mxCell id="6" value="Reduced Normalized&amp;nbsp;&lt;div&gt;Logs w/ Security Events&lt;/div&gt;&lt;div&gt;&amp;nbsp;&lt;span style=&quot;background-color: light-dark(#ffffff, var(--ge-dark-color, #121212));&quot;&gt;(JSONs)&lt;/span&gt;&lt;/div&gt;" style="endArrow=classic;html=1;" edge="1" parent="1">
                    <mxGeometry width="50" height="50" relative="1" as="geometry">
                        <mxPoint x="610" y="249.69" as="sourcePoint"/>
                        <mxPoint x="790" y="250" as="targetPoint"/>
                        <mxPoint as="offset"/>
                    </mxGeometry>
                </mxCell>
                <mxCell id="8" value="&amp;lt;Audit Policy Path&amp;gt;&amp;nbsp;" style="rounded=1;whiteSpace=wrap;html=1;fillColor=#f5f5f5;fontColor=#333333;strokeColor=#666666;" vertex="1" parent="1">
                    <mxGeometry x="490" y="350" width="160" height="60" as="geometry"/>
                </mxCell>
                <mxCell id="10" value="security event mapping" style="rounded=1;whiteSpace=wrap;html=1;fillColor=#fff2cc;strokeColor=#d6b656;" vertex="1" parent="1">
                    <mxGeometry x="530" y="270" width="100" height="30" as="geometry"/>
                </mxCell>
            </root>
        </mxGraphModel>
    </diagram>
</mxfile>